<svg data-v-2cb57da0="" version="1.0" xmlns="http://www.w3.org/2000/svg" xmlns:xlink="http://www.w3.org/1999/xlink" width="100%" height="100%" viewBox="0 0 340.000000 250.000000" preserveAspectRatio="xMidYMid meet" color-interpolation-filters="sRGB" style="margin: auto;"><rect data-v-2cb57da0="" x="0" y="0" width="100%" height="100%" fill="#ffffff" fill-opacity="1" class="background"></rect> <!----> <g data-v-2cb57da0="" fill="#333333" class="icon-text-wrapper icon-svg-group iconsvg" transform="translate(120,75)"><g fill="#333333" class="iconsvg-imagesvg icon_container" transform="translate(0,0)"><rect fill="#333333" fill-opacity="0" stroke-width="2" x="0" y="0" width="100" height="100" class="image-rect"></rect> <svg viewBox="0 0 60 60" x="0" y="0" width="100" height="100" class="image-svg-svg bn" style="overflow: visible;"><g hollow-target="iconBnOutline"><g mask="url(#295c91da-6424-438a-b800-75cdd95c7e67)"><svg fill="#000000" xmlns="http://www.w3.org/2000/svg" xmlns:xlink="http://www.w3.org/1999/xlink" version="1.1" x="0" y="0" viewBox="8.7 8.7 82.6 82.6" enable-background="new 0 0 100 100" xml:space="preserve" style="overflow: visible;" width="60" height="60" filtersec="colorsf5367472450" filter="url(#b-BhgXvi43k2zNtQsDH84)"><g transform="scale(1, 1) skewX(0)"><g><path d="M27.5,50.6H9.3c-0.4,0-0.6-0.3-0.6-0.6l0,0c0-0.4,0.3-0.6,0.6-0.6h18.1c0.4,0,0.6,0.3,0.6,0.6l0,0   C28.1,50.4,27.8,50.6,27.5,50.6z"></path><path d="M27.5,53.2L9.4,54.8c-0.4,0-0.7-0.2-0.7-0.6v0c0-0.4,0.2-0.7,0.6-0.7l18.1-1.6c0.4,0,0.7,0.2,0.7,0.6v0   C28.1,52.9,27.9,53.2,27.5,53.2z"></path><path d="M27.6,55.8L9.7,58.9C9.3,59,9,58.8,8.9,58.4l0,0c-0.1-0.3,0.2-0.7,0.5-0.7l17.9-3.2c0.3-0.1,0.7,0.2,0.7,0.5l0,0   C28.1,55.4,27.9,55.7,27.6,55.8z"></path><path d="M27.6,58.3L10.1,63c-0.3,0.1-0.7-0.1-0.8-0.5h0c-0.1-0.3,0.1-0.7,0.5-0.8l17.5-4.7c0.3-0.1,0.7,0.1,0.8,0.5l0,0   C28.2,57.9,28,58.2,27.6,58.3z"></path><path d="M27.7,60.8L10.6,67c-0.3,0.1-0.7-0.1-0.8-0.4l0,0c-0.1-0.3,0.1-0.7,0.4-0.8l17.1-6.2c0.3-0.1,0.7,0.1,0.8,0.4h0   C28.2,60.3,28,60.7,27.7,60.8z"></path><path d="M27.7,63.3L11.3,71c-0.3,0.2-0.7,0-0.9-0.3h0c-0.2-0.3,0-0.7,0.3-0.9l16.4-7.7c0.3-0.2,0.7,0,0.9,0.3l0,0   C28.2,62.8,28,63.2,27.7,63.3z"></path><path d="M27.8,65.7l-15.7,9.1c-0.3,0.2-0.7,0.1-0.9-0.2h0c-0.2-0.3-0.1-0.7,0.2-0.9l15.7-9.1c0.3-0.2,0.7-0.1,0.9,0.2h0   C28.2,65.2,28.1,65.5,27.8,65.7z"></path><path d="M27.8,68.2L13,78.6c-0.3,0.2-0.7,0.1-0.9-0.2h0c-0.2-0.3-0.1-0.7,0.2-0.9l14.9-10.4c0.3-0.2,0.7-0.1,0.9,0.2l0,0   C28.2,67.6,28.1,68,27.8,68.2z"></path><path d="M27.9,70.6L14,82.3c-0.3,0.2-0.7,0.2-0.9-0.1h0c-0.2-0.3-0.2-0.7,0.1-0.9L27,69.6c0.3-0.2,0.7-0.2,0.9,0.1l0,0   C28.2,70,28.1,70.4,27.9,70.6z"></path><path d="M27.9,73L15.1,85.8c-0.3,0.3-0.7,0.3-0.9,0h0c-0.3-0.3-0.3-0.7,0-0.9L27,72.1c0.3-0.3,0.7-0.3,0.9,0l0,0   C28.2,72.3,28.2,72.7,27.9,73z"></path><path d="M27.5,49.4H9.3c-0.4,0-0.6,0.3-0.6,0.6l0,0c0,0.4,0.3,0.6,0.6,0.6h18.1c0.4,0,0.6-0.3,0.6-0.6l0,0   C28.1,49.6,27.8,49.4,27.5,49.4z"></path><path d="M27.5,46.8L9.4,45.2c-0.4,0-0.7,0.2-0.7,0.6l0,0c0,0.4,0.2,0.7,0.6,0.7l18.1,1.6c0.4,0,0.7-0.2,0.7-0.6v0   C28.1,47.1,27.9,46.8,27.5,46.8z"></path><path d="M27.6,44.2L9.7,41.1C9.3,41,9,41.2,8.9,41.6l0,0c-0.1,0.3,0.2,0.7,0.5,0.7l17.9,3.2c0.3,0.1,0.7-0.2,0.7-0.5v0   C28.1,44.6,27.9,44.3,27.6,44.2z"></path><path d="M27.6,41.7L10.1,37c-0.3-0.1-0.7,0.1-0.8,0.5h0c-0.1,0.3,0.1,0.7,0.5,0.8l17.5,4.7c0.3,0.1,0.7-0.1,0.8-0.5v0   C28.2,42.1,28,41.8,27.6,41.7z"></path><path d="M27.7,39.2L10.6,33c-0.3-0.1-0.7,0.1-0.8,0.4v0c-0.1,0.3,0.1,0.7,0.4,0.8l17.1,6.2c0.3,0.1,0.7-0.1,0.8-0.4h0   C28.2,39.7,28,39.3,27.7,39.2z"></path><path d="M27.7,36.7L11.3,29c-0.3-0.2-0.7,0-0.9,0.3l0,0c-0.2,0.3,0,0.7,0.3,0.9l16.4,7.7c0.3,0.2,0.7,0,0.9-0.3v0   C28.2,37.2,28,36.8,27.7,36.7z"></path><path d="M27.8,34.3l-15.7-9.1c-0.3-0.2-0.7-0.1-0.9,0.2h0c-0.2,0.3-0.1,0.7,0.2,0.9l15.7,9.1c0.3,0.2,0.7,0.1,0.9-0.2h0   C28.2,34.8,28.1,34.5,27.8,34.3z"></path><path d="M27.8,31.8L13,21.4c-0.3-0.2-0.7-0.1-0.9,0.2l0,0c-0.2,0.3-0.1,0.7,0.2,0.9l14.9,10.4c0.3,0.2,0.7,0.1,0.9-0.2v0   C28.2,32.4,28.1,32,27.8,31.8z"></path><path d="M27.9,29.4L14,17.7c-0.3-0.2-0.7-0.2-0.9,0.1l0,0c-0.2,0.3-0.2,0.7,0.1,0.9L27,30.4c0.3,0.2,0.7,0.2,0.9-0.1l0,0   C28.2,30,28.1,29.6,27.9,29.4z"></path><path d="M27.9,27L15.1,14.2c-0.3-0.3-0.7-0.3-0.9,0l0,0c-0.3,0.3-0.3,0.7,0,0.9L27,27.9c0.3,0.3,0.7,0.3,0.9,0v0   C28.2,27.7,28.2,27.3,27.9,27z"></path><path d="M50.6,72.5v18.1c0,0.4-0.3,0.6-0.6,0.6l0,0c-0.4,0-0.6-0.3-0.6-0.6V72.5c0-0.4,0.3-0.6,0.6-0.6l0,0   C50.4,71.9,50.6,72.2,50.6,72.5z"></path><path d="M53.2,72.5l1.6,18.1c0,0.4-0.2,0.7-0.6,0.7h0c-0.4,0-0.7-0.2-0.7-0.6l-1.6-18.1c0-0.4,0.2-0.7,0.6-0.7h0   C52.9,71.9,53.2,72.1,53.2,72.5z"></path><path d="M55.8,72.4l3.2,17.9c0.1,0.3-0.2,0.7-0.5,0.7l0,0c-0.3,0.1-0.7-0.2-0.7-0.5l-3.2-17.9c-0.1-0.3,0.2-0.7,0.5-0.7h0   C55.4,71.9,55.7,72.1,55.8,72.4z"></path><path d="M58.3,72.4L63,89.9c0.1,0.3-0.1,0.7-0.5,0.8l0,0c-0.3,0.1-0.7-0.1-0.8-0.5l-4.7-17.5c-0.1-0.3,0.1-0.7,0.5-0.8h0   C57.9,71.8,58.2,72,58.3,72.4z"></path><path d="M60.8,72.3L67,89.4c0.1,0.3-0.1,0.7-0.4,0.8l0,0c-0.3,0.1-0.7-0.1-0.8-0.4l-6.2-17.1c-0.1-0.3,0.1-0.7,0.4-0.8l0,0   C60.3,71.8,60.7,72,60.8,72.3z"></path><path d="M63.3,72.3L71,88.7c0.2,0.3,0,0.7-0.3,0.9l0,0c-0.3,0.2-0.7,0-0.9-0.3l-7.7-16.4c-0.2-0.3,0-0.7,0.3-0.9l0,0   C62.8,71.8,63.2,72,63.3,72.3z"></path><path d="M65.7,72.2l9.1,15.7c0.2,0.3,0.1,0.7-0.2,0.9l0,0c-0.3,0.2-0.7,0.1-0.9-0.2l-9.1-15.7c-0.2-0.3-0.1-0.7,0.2-0.9l0,0   C65.2,71.8,65.5,71.9,65.7,72.2z"></path><path d="M68.2,72.2L78.6,87c0.2,0.3,0.1,0.7-0.2,0.9v0c-0.3,0.2-0.7,0.1-0.9-0.2L67.1,72.9c-0.2-0.3-0.1-0.7,0.2-0.9l0,0   C67.6,71.8,68,71.9,68.2,72.2z"></path><path d="M70.6,72.1L82.3,86c0.2,0.3,0.2,0.7-0.1,0.9l0,0c-0.3,0.2-0.7,0.2-0.9-0.1L69.6,73c-0.2-0.3-0.2-0.7,0.1-0.9l0,0   C70,71.8,70.4,71.9,70.6,72.1z"></path><path d="M73,72.1l12.8,12.8c0.3,0.3,0.3,0.7,0,0.9l0,0c-0.3,0.3-0.7,0.3-0.9,0L72.1,73c-0.3-0.3-0.3-0.7,0-0.9l0,0   C72.3,71.8,72.7,71.8,73,72.1z"></path><path d="M49.4,72.5v18.1c0,0.4,0.3,0.6,0.6,0.6l0,0c0.4,0,0.6-0.3,0.6-0.6V72.5c0-0.4-0.3-0.6-0.6-0.6l0,0   C49.6,71.9,49.4,72.2,49.4,72.5z"></path><path d="M46.8,72.5l-1.6,18.1c0,0.4,0.2,0.7,0.6,0.7h0c0.4,0,0.7-0.2,0.7-0.6l1.6-18.1c0-0.4-0.2-0.7-0.6-0.7h0   C47.1,71.9,46.8,72.1,46.8,72.5z"></path><path d="M44.2,72.4l-3.2,17.9c-0.1,0.3,0.2,0.7,0.5,0.7l0,0c0.3,0.1,0.7-0.2,0.7-0.5l3.2-17.9c0.1-0.3-0.2-0.7-0.5-0.7h0   C44.6,71.9,44.3,72.1,44.2,72.4z"></path><path d="M41.7,72.4L37,89.9c-0.1,0.3,0.1,0.7,0.5,0.8l0,0c0.3,0.1,0.7-0.1,0.8-0.5l4.7-17.5c0.1-0.3-0.1-0.7-0.5-0.8h0   C42.1,71.8,41.8,72,41.7,72.4z"></path><path d="M39.2,72.3L33,89.4c-0.1,0.3,0.1,0.7,0.4,0.8h0c0.3,0.1,0.7-0.1,0.8-0.4l6.2-17.1c0.1-0.3-0.1-0.7-0.4-0.8l0,0   C39.7,71.8,39.3,72,39.2,72.3z"></path><path d="M36.7,72.3L29,88.7c-0.2,0.3,0,0.7,0.3,0.9h0c0.3,0.2,0.7,0,0.9-0.3l7.7-16.4c0.2-0.3,0-0.7-0.3-0.9l0,0   C37.2,71.8,36.8,72,36.7,72.3z"></path><path d="M34.3,72.2l-9.1,15.7c-0.2,0.3-0.1,0.7,0.2,0.9l0,0c0.3,0.2,0.7,0.1,0.9-0.2l9.1-15.7c0.2-0.3,0.1-0.7-0.2-0.9l0,0   C34.8,71.8,34.5,71.9,34.3,72.2z"></path><path d="M31.8,72.2L21.4,87c-0.2,0.3-0.1,0.7,0.2,0.9v0c0.3,0.2,0.7,0.1,0.9-0.2l10.4-14.9c0.2-0.3,0.1-0.7-0.2-0.9h0   C32.4,71.8,32,71.9,31.8,72.2z"></path><path d="M29.4,72.1L17.7,86c-0.2,0.3-0.2,0.7,0.1,0.9h0c0.3,0.2,0.7,0.2,0.9-0.1L30.4,73c0.2-0.3,0.2-0.7-0.1-0.9l0,0   C30,71.8,29.6,71.9,29.4,72.1z"></path><path d="M27,72.1L14.2,84.9c-0.3,0.3-0.3,0.7,0,0.9h0c0.3,0.3,0.7,0.3,0.9,0L27.9,73c0.3-0.3,0.3-0.7,0-0.9l0,0   C27.7,71.8,27.3,71.8,27,72.1z"></path><path d="M72.5,49.4h18.1c0.4,0,0.6,0.3,0.6,0.6l0,0c0,0.4-0.3,0.6-0.6,0.6H72.5c-0.4,0-0.6-0.3-0.6-0.6l0,0   C71.9,49.6,72.2,49.4,72.5,49.4z"></path><path d="M72.5,46.8l18.1-1.6c0.4,0,0.7,0.2,0.7,0.6v0c0,0.4-0.2,0.7-0.6,0.7l-18.1,1.6c-0.4,0-0.7-0.2-0.7-0.6v0   C71.9,47.1,72.1,46.8,72.5,46.8z"></path><path d="M72.4,44.2l17.9-3.2c0.3-0.1,0.7,0.2,0.7,0.5h0c0.1,0.3-0.2,0.7-0.5,0.7l-17.9,3.2c-0.3,0.1-0.7-0.2-0.7-0.5v0   C71.9,44.6,72.1,44.3,72.4,44.2z"></path><path d="M72.4,41.7L89.9,37c0.3-0.1,0.7,0.1,0.8,0.5l0,0c0.1,0.3-0.1,0.7-0.5,0.8l-17.5,4.7c-0.3,0.1-0.7-0.1-0.8-0.5v0   C71.8,42.1,72,41.8,72.4,41.7z"></path><path d="M72.3,39.2L89.4,33c0.3-0.1,0.7,0.1,0.8,0.4v0c0.1,0.3-0.1,0.7-0.4,0.8l-17.1,6.2c-0.3,0.1-0.7-0.1-0.8-0.4l0,0   C71.8,39.7,72,39.3,72.3,39.2z"></path><path d="M72.3,36.7L88.7,29c0.3-0.2,0.7,0,0.9,0.3v0c0.2,0.3,0,0.7-0.3,0.9l-16.4,7.7c-0.3,0.2-0.7,0-0.9-0.3l0,0   C71.8,37.2,72,36.8,72.3,36.7z"></path><path d="M72.2,34.3l15.7-9.1c0.3-0.2,0.7-0.1,0.9,0.2l0,0c0.2,0.3,0.1,0.7-0.2,0.9l-15.7,9.1c-0.3,0.2-0.7,0.1-0.9-0.2l0,0   C71.8,34.8,71.9,34.5,72.2,34.3z"></path><path d="M72.2,31.8L87,21.4c0.3-0.2,0.7-0.1,0.9,0.2h0c0.2,0.3,0.1,0.7-0.2,0.9L72.9,32.9c-0.3,0.2-0.7,0.1-0.9-0.2v0   C71.8,32.4,71.9,32,72.2,31.8z"></path><path d="M72.1,29.4L86,17.7c0.3-0.2,0.7-0.2,0.9,0.1v0c0.2,0.3,0.2,0.7-0.1,0.9L73,30.4c-0.3,0.2-0.7,0.2-0.9-0.1l0,0   C71.8,30,71.9,29.6,72.1,29.4z"></path><path d="M72.1,27l12.8-12.8c0.3-0.3,0.7-0.3,0.9,0v0c0.3,0.3,0.3,0.7,0,0.9L73,27.9c-0.3,0.3-0.7,0.3-0.9,0l0,0   C71.8,27.7,71.8,27.3,72.1,27z"></path><path d="M72.5,50.6h18.1c0.4,0,0.6-0.3,0.6-0.6l0,0c0-0.4-0.3-0.6-0.6-0.6H72.5c-0.4,0-0.6,0.3-0.6,0.6l0,0   C71.9,50.4,72.2,50.6,72.5,50.6z"></path><path d="M72.5,53.2l18.1,1.6c0.4,0,0.7-0.2,0.7-0.6v0c0-0.4-0.2-0.7-0.6-0.7l-18.1-1.6c-0.4,0-0.7,0.2-0.7,0.6v0   C71.9,52.9,72.1,53.2,72.5,53.2z"></path><path d="M72.4,55.8l17.9,3.2c0.3,0.1,0.7-0.2,0.7-0.5h0c0.1-0.3-0.2-0.7-0.5-0.7l-17.9-3.2c-0.3-0.1-0.7,0.2-0.7,0.5v0   C71.9,55.4,72.1,55.7,72.4,55.8z"></path><path d="M72.4,58.3L89.9,63c0.3,0.1,0.7-0.1,0.8-0.5l0,0c0.1-0.3-0.1-0.7-0.5-0.8l-17.5-4.7c-0.3-0.1-0.7,0.1-0.8,0.5v0   C71.8,57.9,72,58.2,72.4,58.3z"></path><path d="M72.3,60.8L89.4,67c0.3,0.1,0.7-0.1,0.8-0.4l0,0c0.1-0.3-0.1-0.7-0.4-0.8l-17.1-6.2c-0.3-0.1-0.7,0.1-0.8,0.4l0,0   C71.8,60.3,72,60.7,72.3,60.8z"></path><path d="M72.3,63.3L88.7,71c0.3,0.2,0.7,0,0.9-0.3l0,0c0.2-0.3,0-0.7-0.3-0.9l-16.4-7.7c-0.3-0.2-0.7,0-0.9,0.3l0,0   C71.8,62.8,72,63.2,72.3,63.3z"></path><path d="M72.2,65.7l15.7,9.1c0.3,0.2,0.7,0.1,0.9-0.2l0,0c0.2-0.3,0.1-0.7-0.2-0.9l-15.7-9.1c-0.3-0.2-0.7-0.1-0.9,0.2l0,0   C71.8,65.2,71.9,65.5,72.2,65.7z"></path><path d="M72.2,68.2L87,78.6c0.3,0.2,0.7,0.1,0.9-0.2h0c0.2-0.3,0.1-0.7-0.2-0.9L72.9,67.1c-0.3-0.2-0.7-0.1-0.9,0.2l0,0   C71.8,67.6,71.9,68,72.2,68.2z"></path><path d="M72.1,70.6L86,82.3c0.3,0.2,0.7,0.2,0.9-0.1l0,0c0.2-0.3,0.2-0.7-0.1-0.9L73,69.6c-0.3-0.2-0.7-0.2-0.9,0.1v0   C71.8,70,71.9,70.4,72.1,70.6z"></path><path d="M72.1,73l12.8,12.8c0.3,0.3,0.7,0.3,0.9,0l0,0c0.3-0.3,0.3-0.7,0-0.9L73,72.1c-0.3-0.3-0.7-0.3-0.9,0l0,0   C71.8,72.3,71.8,72.7,72.1,73z"></path><path d="M49.4,27.5V9.3c0-0.4,0.3-0.6,0.6-0.6l0,0c0.4,0,0.6,0.3,0.6,0.6v18.1c0,0.4-0.3,0.6-0.6,0.6l0,0   C49.6,28.1,49.4,27.8,49.4,27.5z"></path><path d="M46.8,27.5L45.2,9.4c0-0.4,0.2-0.7,0.6-0.7h0c0.4,0,0.7,0.2,0.7,0.6l1.6,18.1c0,0.4-0.2,0.7-0.6,0.7h0   C47.1,28.1,46.8,27.9,46.8,27.5z"></path><path d="M44.2,27.6L41.1,9.7C41,9.3,41.2,9,41.6,8.9v0c0.3-0.1,0.7,0.2,0.7,0.5l3.2,17.9c0.1,0.3-0.2,0.7-0.5,0.7v0   C44.6,28.1,44.3,27.9,44.2,27.6z"></path><path d="M41.7,27.6L37,10.1c-0.1-0.3,0.1-0.7,0.5-0.8l0,0c0.3-0.1,0.7,0.1,0.8,0.5l4.7,17.5c0.1,0.3-0.1,0.7-0.5,0.8l0,0   C42.1,28.2,41.8,28,41.7,27.6z"></path><path d="M39.2,27.7L33,10.6c-0.1-0.3,0.1-0.7,0.4-0.8l0,0c0.3-0.1,0.7,0.1,0.8,0.4l6.2,17.1c0.1,0.3-0.1,0.7-0.4,0.8l0,0   C39.7,28.2,39.3,28,39.2,27.7z"></path><path d="M36.7,27.7L29,11.3c-0.2-0.3,0-0.7,0.3-0.9h0c0.3-0.2,0.7,0,0.9,0.3l7.7,16.4c0.2,0.3,0,0.7-0.3,0.9l0,0   C37.2,28.2,36.8,28,36.7,27.7z"></path><path d="M34.3,27.8l-9.1-15.7c-0.2-0.3-0.1-0.7,0.2-0.9l0,0c0.3-0.2,0.7-0.1,0.9,0.2l9.1,15.7c0.2,0.3,0.1,0.7-0.2,0.9l0,0   C34.8,28.2,34.5,28.1,34.3,27.8z"></path><path d="M31.8,27.8L21.4,13c-0.2-0.3-0.1-0.7,0.2-0.9l0,0c0.3-0.2,0.7-0.1,0.9,0.2l10.4,14.9c0.2,0.3,0.1,0.7-0.2,0.9h0   C32.4,28.2,32,28.1,31.8,27.8z"></path><path d="M29.4,27.9L17.7,14c-0.2-0.3-0.2-0.7,0.1-0.9l0,0c0.3-0.2,0.7-0.2,0.9,0.1L30.4,27c0.2,0.3,0.2,0.7-0.1,0.9v0   C30,28.2,29.6,28.1,29.4,27.9z"></path><path d="M27,27.9L14.2,15.1c-0.3-0.3-0.3-0.7,0-0.9l0,0c0.3-0.3,0.7-0.3,0.9,0L27.9,27c0.3,0.3,0.3,0.7,0,0.9l0,0   C27.7,28.2,27.3,28.2,27,27.9z"></path><path d="M50.6,27.5V9.3c0-0.4-0.3-0.6-0.6-0.6l0,0c-0.4,0-0.6,0.3-0.6,0.6v18.1c0,0.4,0.3,0.6,0.6,0.6l0,0   C50.4,28.1,50.6,27.8,50.6,27.5z"></path><path d="M53.2,27.5l1.6-18.1c0-0.4-0.2-0.7-0.6-0.7l0,0c-0.4,0-0.7,0.2-0.7,0.6l-1.6,18.1c0,0.4,0.2,0.7,0.6,0.7h0   C52.9,28.1,53.2,27.9,53.2,27.5z"></path><path d="M55.8,27.6l3.2-17.9C59,9.3,58.8,9,58.4,8.9v0c-0.3-0.1-0.7,0.2-0.7,0.5l-3.2,17.9c-0.1,0.3,0.2,0.7,0.5,0.7l0,0   C55.4,28.1,55.7,27.9,55.8,27.6z"></path><path d="M58.3,27.6L63,10.1c0.1-0.3-0.1-0.7-0.5-0.8l0,0c-0.3-0.1-0.7,0.1-0.8,0.5l-4.7,17.5c-0.1,0.3,0.1,0.7,0.5,0.8h0   C57.9,28.2,58.2,28,58.3,27.6z"></path><path d="M60.8,27.7L67,10.6c0.1-0.3-0.1-0.7-0.4-0.8v0c-0.3-0.1-0.7,0.1-0.8,0.4l-6.2,17.1c-0.1,0.3,0.1,0.7,0.4,0.8l0,0   C60.3,28.2,60.7,28,60.8,27.7z"></path><path d="M63.3,27.7L71,11.3c0.2-0.3,0-0.7-0.3-0.9l0,0c-0.3-0.2-0.7,0-0.9,0.3l-7.7,16.4c-0.2,0.3,0,0.7,0.3,0.9h0   C62.8,28.2,63.2,28,63.3,27.7z"></path><path d="M65.7,27.8l9.1-15.7c0.2-0.3,0.1-0.7-0.2-0.9v0c-0.3-0.2-0.7-0.1-0.9,0.2l-9.1,15.7c-0.2,0.3-0.1,0.7,0.2,0.9h0   C65.2,28.2,65.5,28.1,65.7,27.8z"></path><path d="M68.2,27.8L78.6,13c0.2-0.3,0.1-0.7-0.2-0.9l0,0c-0.3-0.2-0.7-0.1-0.9,0.2L67.1,27.1c-0.2,0.3-0.1,0.7,0.2,0.9l0,0   C67.6,28.2,68,28.1,68.2,27.8z"></path><path d="M70.6,27.9L82.3,14c0.2-0.3,0.2-0.7-0.1-0.9v0c-0.3-0.2-0.7-0.2-0.9,0.1L69.6,27c-0.2,0.3-0.2,0.7,0.1,0.9v0   C70,28.2,70.4,28.1,70.6,27.9z"></path><path d="M73,27.9l12.8-12.8c0.3-0.3,0.3-0.7,0-0.9v0c-0.3-0.3-0.7-0.3-0.9,0L72.1,27c-0.3,0.3-0.3,0.7,0,0.9l0,0   C72.3,28.2,72.7,28.2,73,27.9z"></path></g></g><defs><filter id="b-BhgXvi43k2zNtQsDH84"><feColorMatrix type="matrix" values="0 0 0 0 0.19921875  0 0 0 0 0.19921875  0 0 0 0 0.19921875  0 0 0 1 0"></feColorMatrix></filter></defs></svg></g> <g filter="url(#colors7745317462)"><svg xmlns="http://www.w3.org/2000/svg" xmlns:xlink="http://www.w3.org/1999/xlink" viewBox="0 0 131.9502854003906 52.92000000000001" width="45" height="45" x="7.5" y="7.5" class="image-svg-letter"><path transform="translate(-3.096 52.848000000000006)" d="M26.28-0.72L26.28-0.72Q26.14-0.65 26.03-0.58Q25.92-0.50 25.78-0.50L25.78-0.50L3.67-0.50Q3.31-0.50 3.17-0.61Q3.02-0.72 3.17-1.08L3.17-1.08Q3.46-1.73 4.36-1.98Q5.26-2.23 6.30-2.27Q7.34-2.30 8.24-2.34Q9.14-2.38 9.36-2.59L9.36-2.59Q9.58-2.81 9.58-3.17L9.58-3.17L9.58-50.18Q9.58-50.62 9.40-50.72Q9.22-50.83 8.86-50.98L8.86-50.98Q8.28-51.12 7.60-51.16Q6.91-51.19 6.19-51.23Q5.47-51.26 4.82-51.34Q4.18-51.41 3.67-51.70L3.67-51.70Q3.38-51.84 3.38-51.95Q3.38-52.06 3.38-52.34L3.38-52.34Q3.38-52.78 3.89-52.78L3.89-52.78L26.42-52.78Q26.86-52.78 26.86-52.27L26.86-52.27Q26.86-51.77 26.03-51.55Q25.20-51.34 24.16-51.23Q23.11-51.12 22.14-51.05Q21.17-50.98 20.88-50.69L20.88-50.69Q20.74-50.54 20.74-50.40Q20.74-50.26 20.74-50.11L20.74-50.11Q20.81-49.54 20.77-49.03Q20.74-48.53 20.74-47.95L20.74-47.95L20.66-42.34Q20.66-41.47 20.66-38.20Q20.66-34.92 20.66-30.56Q20.66-26.21 20.63-21.38Q20.59-16.56 20.63-12.46Q20.66-8.35 20.70-5.58Q20.74-2.81 20.81-2.66L20.81-2.66Q20.88-2.45 21.92-2.38Q22.97-2.30 24.08-2.20Q25.20-2.09 25.96-1.76Q26.71-1.44 26.28-0.72ZM36.36-51.41L36.36-51.41Q35.78-51.55 35.24-51.66Q34.70-51.77 35.28-52.56L35.28-52.56Q35.50-52.78 35.78-52.78L35.78-52.78L52.49-52.78Q52.78-52.78 52.92-52.74Q53.06-52.70 52.92-52.34L52.92-52.34Q52.70-51.91 51.44-51.41Q50.18-50.90 48.64-50.36Q47.09-49.82 45.65-49.25Q44.21-48.67 43.70-48.02L43.70-48.02L36.00-38.81Q35.78-38.52 35.35-38.09Q34.92-37.66 34.52-37.15Q34.13-36.65 33.88-36.14Q33.62-35.64 33.77-35.21L33.77-35.21Q34.06-34.13 34.85-32.90Q35.64-31.68 36.22-30.67L36.22-30.67Q37.01-29.30 37.69-27.94Q38.38-26.57 39.17-25.20L39.17-25.20Q41.83-20.45 44.35-15.73Q46.87-11.02 49.46-6.26L49.46-6.26Q50.40-4.61 51.08-3.82Q51.77-3.02 52.27-2.77Q52.78-2.52 53.21-2.63Q53.64-2.74 54.07-2.77Q54.50-2.81 54.97-2.59Q55.44-2.38 56.09-1.51L56.09-1.51Q56.23-1.37 56.45-0.94Q56.66-0.50 56.09-0.50L56.09-0.50L34.42-0.50Q34.06-0.50 33.91-0.61Q33.77-0.72 33.91-1.08L33.91-1.08Q34.13-1.44 34.63-1.69Q35.14-1.94 35.78-2.09Q36.43-2.23 37.08-2.30Q37.73-2.38 38.09-2.38L38.09-2.38Q38.88-2.38 38.88-3.17L38.88-3.17Q38.88-4.18 38.30-5.62Q37.73-7.06 37.30-7.92L37.30-7.92Q35.50-11.38 33.52-14.72Q31.54-18.07 29.52-21.46L29.52-21.46Q28.80-22.68 28.22-23.83Q27.65-24.98 27.22-26.28L27.22-26.28Q27.14-26.57 26.86-26.64L26.86-26.64Q26.28-26.78 25.74-26.46Q25.20-26.14 24.73-25.56Q24.26-24.98 23.83-24.37Q23.40-23.76 23.11-23.40L23.11-23.40Q22.90-23.11 22.64-23.18Q22.39-23.26 22.25-23.51Q22.10-23.76 22.14-24.12Q22.18-24.48 22.46-24.84L22.46-24.84Q23.76-26.35 24.98-27.97Q26.21-29.59 27.43-31.18L27.43-31.18Q29.95-34.34 32.44-37.40Q34.92-40.46 37.44-43.63L37.44-43.63Q38.09-44.42 38.70-45.25Q39.31-46.08 40.03-46.87L40.03-46.87Q40.25-47.09 40.64-47.48Q41.04-47.88 41.44-48.31Q41.83-48.74 42.16-49.14Q42.48-49.54 42.62-49.75L42.62-49.75Q42.84-50.18 42.55-50.62L42.55-50.62Q42.41-50.83 41.54-50.94Q40.68-51.05 39.64-51.08Q38.59-51.12 37.66-51.19Q36.72-51.26 36.36-51.41ZM95.69-50.69L95.62-50.69Q95.33-50.90 94.25-51.01Q93.17-51.12 91.98-51.23Q90.79-51.34 89.82-51.52Q88.85-51.70 88.85-52.20L88.85-52.20Q88.85-52.78 89.42-52.78L89.42-52.78L111.02-52.78Q111.60-52.78 111.53-52.20L111.53-52.20Q111.38-51.48 110.05-51.34Q108.72-51.19 107.21-51.12Q105.70-51.05 104.54-50.90Q103.39-50.76 103.61-50.04L103.61-50.04L112.68-18.22Q112.90-17.35 113.08-16.16Q113.26-14.98 113.47-13.79Q113.69-12.60 114.01-11.52Q114.34-10.44 114.77-9.79L114.77-9.79Q115.13-9.36 115.42-8.28Q115.70-7.20 115.85-6.62L115.85-6.62Q115.06-4.39 114.55-2.23L114.55-2.23Q114.41-1.66 114.30-1.04Q114.19-0.43 113.76-0.07L113.76-0.07Q113.69 0 112.97 0Q112.25 0 111.38 0Q110.52 0 109.69 0Q108.86 0 108.65 0L108.65 0Q108.22 0 108-0.36L108-0.36Q107.86-0.58 107.28-2.38Q106.70-4.18 105.91-6.88Q105.12-9.58 104.18-12.74Q103.25-15.91 102.42-18.79Q101.59-21.67 100.91-23.90Q100.22-26.14 100.01-26.93L100.01-26.93Q99.58-28.37 99.11-29.77Q98.64-31.18 98.28-32.62L98.28-32.62Q98.14-33.12 97.88-34.70Q97.63-36.29 97.31-37.98Q96.98-39.67 96.55-40.97Q96.12-42.26 95.69-42.26L95.69-42.26Q95.11-42.26 94.82-41.54L94.82-41.54Q94.68-41.11 94.61-40.61Q94.54-40.10 94.39-39.60L94.39-39.60L93.31-34.99Q91.94-29.30 90.25-23.80Q88.56-18.29 86.83-12.67L86.83-12.67Q86.54-11.74 85.97-12.24Q85.39-12.74 85.39-13.54L85.39-13.54Q85.39-13.61 85.64-14.62Q85.90-15.62 86.22-16.88Q86.54-18.14 86.87-19.26Q87.19-20.38 87.26-20.66L87.26-20.66Q88.56-25.49 90-30.20Q91.44-34.92 92.74-39.74L92.74-39.74Q93.24-41.62 93.64-43.60Q94.03-45.58 94.82-47.38L94.82-47.38Q94.90-47.59 95.11-48.06Q95.33-48.53 95.47-49.07Q95.62-49.61 95.72-50.04Q95.83-50.47 95.69-50.69L95.69-50.69ZM118.73-52.56L118.73-52.63Q118.94-52.70 120.06-52.78Q121.18-52.85 122.72-52.85Q124.27-52.85 126.11-52.85Q127.94-52.85 129.60-52.81Q131.26-52.78 132.59-52.78Q133.92-52.78 134.42-52.78L134.42-52.78Q135.22-52.78 135-52.13L135-52.13Q134.86-51.48 133.92-51.34Q132.98-51.19 131.83-51.08Q130.68-50.98 129.60-50.54Q128.52-50.11 128.02-48.96L128.02-48.96Q127.66-48.10 127.40-47.20Q127.15-46.30 126.86-45.36L126.86-45.36Q126.07-42.84 125.46-40.25Q124.85-37.66 124.06-35.06L124.06-35.06L121.25-25.34Q120.67-23.47 120.10-21.56Q119.52-19.66 118.94-17.71L118.94-17.71Q118.58-16.70 118.33-15.70Q118.08-14.69 117.72-13.68L117.72-13.68Q117.36-12.67 116.68-12.71Q115.99-12.74 116.14-13.75L116.14-13.75Q116.21-14.04 116.28-14.22Q116.35-14.40 116.42-14.69L116.42-14.69Q116.71-15.70 116.86-16.78Q117-17.86 117.29-18.86L117.29-18.86Q117.79-21.02 118.33-23.22Q118.87-25.42 119.45-27.58L119.45-27.58Q120.67-32.11 121.79-36.58Q122.90-41.04 124.20-45.58L124.20-45.58Q124.49-46.51 124.78-47.38Q125.06-48.24 125.21-49.25L125.21-49.25Q125.28-49.82 125.28-50.22Q125.28-50.62 124.70-50.90L124.70-50.90Q124.27-51.12 123.48-51.12Q122.69-51.12 121.79-51.12Q120.89-51.12 120.02-51.30Q119.16-51.48 118.66-52.06L118.66-52.06Q118.37-52.34 118.73-52.56L118.73-52.56ZM85.54-8.28L85.54-8.28Q84.96-6.34 84.38-4.36Q83.81-2.38 83.09-0.50L83.09-0.50Q82.94-0.22 82.87-0.11Q82.80 0 82.44 0L82.44 0Q82.08 0 81.32 0.04Q80.57 0.07 79.78 0.07Q78.98 0.07 78.30 0Q77.62-0.07 77.40-0.22L77.40-0.22Q77.18-0.36 76.57-2.34Q75.96-4.32 75.24-6.77Q74.52-9.22 73.91-11.41Q73.30-13.61 73.08-14.26L73.08-14.26L67.32-33.77Q66.31-37.22 65.27-40.64Q64.22-44.06 63.22-47.52L63.22-47.52Q63.07-48.02 62.96-48.53Q62.86-49.03 62.71-49.54L62.71-49.54Q62.57-49.75 62.46-50.04Q62.35-50.33 62.21-50.54L62.21-50.54Q61.99-50.83 61.42-50.98Q60.84-51.12 60.16-51.23Q59.47-51.34 58.82-51.44Q58.18-51.55 57.89-51.70L57.89-51.70Q57.46-51.91 57.42-52.34Q57.38-52.78 57.96-52.78L57.96-52.78L80.06-52.78Q80.64-52.78 80.53-52.34Q80.42-51.91 80.14-51.70L80.14-51.70Q79.92-51.55 79.13-51.41Q78.34-51.26 77.44-51.19Q76.54-51.12 75.71-51.05Q74.88-50.98 74.52-50.90L74.52-50.90Q74.02-50.83 73.94-50.80Q73.87-50.76 73.80-50.18L73.80-50.18Q73.73-49.68 74.05-48.02Q74.38-46.37 74.84-44.42Q75.31-42.48 75.74-40.72Q76.18-38.95 76.39-38.23L76.39-38.23Q77.62-33.41 78.95-28.66Q80.28-23.90 81.58-19.08L81.58-19.08Q82.01-17.57 82.48-16.06Q82.94-14.54 83.30-13.03L83.30-13.03Q83.52-12.24 83.66-11.48Q83.81-10.73 84.17-10.01L84.17-10.01Q84.24-9.86 84.46-9.72Q84.67-9.58 84.89-9.43Q85.10-9.29 85.32-9.00Q85.54-8.71 85.54-8.28Z"></path></svg></g></g><mask id="295c91da-6424-438a-b800-75cdd95c7e67"><g fill="white"><svg xmlns="http://www.w3.org/2000/svg" xmlns:xlink="http://www.w3.org/1999/xlink" version="1.1" x="0" y="0" viewBox="8.7 8.7 82.6 82.6" enable-background="new 0 0 100 100" xml:space="preserve" style="overflow: visible;" width="60" height="60" filtersec="colorsf5367472450"><g transform="scale(1, 1) skewX(0)"><g><path d="M27.5,50.6H9.3c-0.4,0-0.6-0.3-0.6-0.6l0,0c0-0.4,0.3-0.6,0.6-0.6h18.1c0.4,0,0.6,0.3,0.6,0.6l0,0   C28.1,50.4,27.8,50.6,27.5,50.6z"></path><path d="M27.5,53.2L9.4,54.8c-0.4,0-0.7-0.2-0.7-0.6v0c0-0.4,0.2-0.7,0.6-0.7l18.1-1.6c0.4,0,0.7,0.2,0.7,0.6v0   C28.1,52.9,27.9,53.2,27.5,53.2z"></path><path d="M27.6,55.8L9.7,58.9C9.3,59,9,58.8,8.9,58.4l0,0c-0.1-0.3,0.2-0.7,0.5-0.7l17.9-3.2c0.3-0.1,0.7,0.2,0.7,0.5l0,0   C28.1,55.4,27.9,55.7,27.6,55.8z"></path><path d="M27.6,58.3L10.1,63c-0.3,0.1-0.7-0.1-0.8-0.5h0c-0.1-0.3,0.1-0.7,0.5-0.8l17.5-4.7c0.3-0.1,0.7,0.1,0.8,0.5l0,0   C28.2,57.9,28,58.2,27.6,58.3z"></path><path d="M27.7,60.8L10.6,67c-0.3,0.1-0.7-0.1-0.8-0.4l0,0c-0.1-0.3,0.1-0.7,0.4-0.8l17.1-6.2c0.3-0.1,0.7,0.1,0.8,0.4h0   C28.2,60.3,28,60.7,27.7,60.8z"></path><path d="M27.7,63.3L11.3,71c-0.3,0.2-0.7,0-0.9-0.3h0c-0.2-0.3,0-0.7,0.3-0.9l16.4-7.7c0.3-0.2,0.7,0,0.9,0.3l0,0   C28.2,62.8,28,63.2,27.7,63.3z"></path><path d="M27.8,65.7l-15.7,9.1c-0.3,0.2-0.7,0.1-0.9-0.2h0c-0.2-0.3-0.1-0.7,0.2-0.9l15.7-9.1c0.3-0.2,0.7-0.1,0.9,0.2h0   C28.2,65.2,28.1,65.5,27.8,65.7z"></path><path d="M27.8,68.2L13,78.6c-0.3,0.2-0.7,0.1-0.9-0.2h0c-0.2-0.3-0.1-0.7,0.2-0.9l14.9-10.4c0.3-0.2,0.7-0.1,0.9,0.2l0,0   C28.2,67.6,28.1,68,27.8,68.2z"></path><path d="M27.9,70.6L14,82.3c-0.3,0.2-0.7,0.2-0.9-0.1h0c-0.2-0.3-0.2-0.7,0.1-0.9L27,69.6c0.3-0.2,0.7-0.2,0.9,0.1l0,0   C28.2,70,28.1,70.4,27.9,70.6z"></path><path d="M27.9,73L15.1,85.8c-0.3,0.3-0.7,0.3-0.9,0h0c-0.3-0.3-0.3-0.7,0-0.9L27,72.1c0.3-0.3,0.7-0.3,0.9,0l0,0   C28.2,72.3,28.2,72.7,27.9,73z"></path><path d="M27.5,49.4H9.3c-0.4,0-0.6,0.3-0.6,0.6l0,0c0,0.4,0.3,0.6,0.6,0.6h18.1c0.4,0,0.6-0.3,0.6-0.6l0,0   C28.1,49.6,27.8,49.4,27.5,49.4z"></path><path d="M27.5,46.8L9.4,45.2c-0.4,0-0.7,0.2-0.7,0.6l0,0c0,0.4,0.2,0.7,0.6,0.7l18.1,1.6c0.4,0,0.7-0.2,0.7-0.6v0   C28.1,47.1,27.9,46.8,27.5,46.8z"></path><path d="M27.6,44.2L9.7,41.1C9.3,41,9,41.2,8.9,41.6l0,0c-0.1,0.3,0.2,0.7,0.5,0.7l17.9,3.2c0.3,0.1,0.7-0.2,0.7-0.5v0   C28.1,44.6,27.9,44.3,27.6,44.2z"></path><path d="M27.6,41.7L10.1,37c-0.3-0.1-0.7,0.1-0.8,0.5h0c-0.1,0.3,0.1,0.7,0.5,0.8l17.5,4.7c0.3,0.1,0.7-0.1,0.8-0.5v0   C28.2,42.1,28,41.8,27.6,41.7z"></path><path d="M27.7,39.2L10.6,33c-0.3-0.1-0.7,0.1-0.8,0.4v0c-0.1,0.3,0.1,0.7,0.4,0.8l17.1,6.2c0.3,0.1,0.7-0.1,0.8-0.4h0   C28.2,39.7,28,39.3,27.7,39.2z"></path><path d="M27.7,36.7L11.3,29c-0.3-0.2-0.7,0-0.9,0.3l0,0c-0.2,0.3,0,0.7,0.3,0.9l16.4,7.7c0.3,0.2,0.7,0,0.9-0.3v0   C28.2,37.2,28,36.8,27.7,36.7z"></path><path d="M27.8,34.3l-15.7-9.1c-0.3-0.2-0.7-0.1-0.9,0.2h0c-0.2,0.3-0.1,0.7,0.2,0.9l15.7,9.1c0.3,0.2,0.7,0.1,0.9-0.2h0   C28.2,34.8,28.1,34.5,27.8,34.3z"></path><path d="M27.8,31.8L13,21.4c-0.3-0.2-0.7-0.1-0.9,0.2l0,0c-0.2,0.3-0.1,0.7,0.2,0.9l14.9,10.4c0.3,0.2,0.7,0.1,0.9-0.2v0   C28.2,32.4,28.1,32,27.8,31.8z"></path><path d="M27.9,29.4L14,17.7c-0.3-0.2-0.7-0.2-0.9,0.1l0,0c-0.2,0.3-0.2,0.7,0.1,0.9L27,30.4c0.3,0.2,0.7,0.2,0.9-0.1l0,0   C28.2,30,28.1,29.6,27.9,29.4z"></path><path d="M27.9,27L15.1,14.2c-0.3-0.3-0.7-0.3-0.9,0l0,0c-0.3,0.3-0.3,0.7,0,0.9L27,27.9c0.3,0.3,0.7,0.3,0.9,0v0   C28.2,27.7,28.2,27.3,27.9,27z"></path><path d="M50.6,72.5v18.1c0,0.4-0.3,0.6-0.6,0.6l0,0c-0.4,0-0.6-0.3-0.6-0.6V72.5c0-0.4,0.3-0.6,0.6-0.6l0,0   C50.4,71.9,50.6,72.2,50.6,72.5z"></path><path d="M53.2,72.5l1.6,18.1c0,0.4-0.2,0.7-0.6,0.7h0c-0.4,0-0.7-0.2-0.7-0.6l-1.6-18.1c0-0.4,0.2-0.7,0.6-0.7h0   C52.9,71.9,53.2,72.1,53.2,72.5z"></path><path d="M55.8,72.4l3.2,17.9c0.1,0.3-0.2,0.7-0.5,0.7l0,0c-0.3,0.1-0.7-0.2-0.7-0.5l-3.2-17.9c-0.1-0.3,0.2-0.7,0.5-0.7h0   C55.4,71.9,55.7,72.1,55.8,72.4z"></path><path d="M58.3,72.4L63,89.9c0.1,0.3-0.1,0.7-0.5,0.8l0,0c-0.3,0.1-0.7-0.1-0.8-0.5l-4.7-17.5c-0.1-0.3,0.1-0.7,0.5-0.8h0   C57.9,71.8,58.2,72,58.3,72.4z"></path><path d="M60.8,72.3L67,89.4c0.1,0.3-0.1,0.7-0.4,0.8l0,0c-0.3,0.1-0.7-0.1-0.8-0.4l-6.2-17.1c-0.1-0.3,0.1-0.7,0.4-0.8l0,0   C60.3,71.8,60.7,72,60.8,72.3z"></path><path d="M63.3,72.3L71,88.7c0.2,0.3,0,0.7-0.3,0.9l0,0c-0.3,0.2-0.7,0-0.9-0.3l-7.7-16.4c-0.2-0.3,0-0.7,0.3-0.9l0,0   C62.8,71.8,63.2,72,63.3,72.3z"></path><path d="M65.7,72.2l9.1,15.7c0.2,0.3,0.1,0.7-0.2,0.9l0,0c-0.3,0.2-0.7,0.1-0.9-0.2l-9.1-15.7c-0.2-0.3-0.1-0.7,0.2-0.9l0,0   C65.2,71.8,65.5,71.9,65.7,72.2z"></path><path d="M68.2,72.2L78.6,87c0.2,0.3,0.1,0.7-0.2,0.9v0c-0.3,0.2-0.7,0.1-0.9-0.2L67.1,72.9c-0.2-0.3-0.1-0.7,0.2-0.9l0,0   C67.6,71.8,68,71.9,68.2,72.2z"></path><path d="M70.6,72.1L82.3,86c0.2,0.3,0.2,0.7-0.1,0.9l0,0c-0.3,0.2-0.7,0.2-0.9-0.1L69.6,73c-0.2-0.3-0.2-0.7,0.1-0.9l0,0   C70,71.8,70.4,71.9,70.6,72.1z"></path><path d="M73,72.1l12.8,12.8c0.3,0.3,0.3,0.7,0,0.9l0,0c-0.3,0.3-0.7,0.3-0.9,0L72.1,73c-0.3-0.3-0.3-0.7,0-0.9l0,0   C72.3,71.8,72.7,71.8,73,72.1z"></path><path d="M49.4,72.5v18.1c0,0.4,0.3,0.6,0.6,0.6l0,0c0.4,0,0.6-0.3,0.6-0.6V72.5c0-0.4-0.3-0.6-0.6-0.6l0,0   C49.6,71.9,49.4,72.2,49.4,72.5z"></path><path d="M46.8,72.5l-1.6,18.1c0,0.4,0.2,0.7,0.6,0.7h0c0.4,0,0.7-0.2,0.7-0.6l1.6-18.1c0-0.4-0.2-0.7-0.6-0.7h0   C47.1,71.9,46.8,72.1,46.8,72.5z"></path><path d="M44.2,72.4l-3.2,17.9c-0.1,0.3,0.2,0.7,0.5,0.7l0,0c0.3,0.1,0.7-0.2,0.7-0.5l3.2-17.9c0.1-0.3-0.2-0.7-0.5-0.7h0   C44.6,71.9,44.3,72.1,44.2,72.4z"></path><path d="M41.7,72.4L37,89.9c-0.1,0.3,0.1,0.7,0.5,0.8l0,0c0.3,0.1,0.7-0.1,0.8-0.5l4.7-17.5c0.1-0.3-0.1-0.7-0.5-0.8h0   C42.1,71.8,41.8,72,41.7,72.4z"></path><path d="M39.2,72.3L33,89.4c-0.1,0.3,0.1,0.7,0.4,0.8h0c0.3,0.1,0.7-0.1,0.8-0.4l6.2-17.1c0.1-0.3-0.1-0.7-0.4-0.8l0,0   C39.7,71.8,39.3,72,39.2,72.3z"></path><path d="M36.7,72.3L29,88.7c-0.2,0.3,0,0.7,0.3,0.9h0c0.3,0.2,0.7,0,0.9-0.3l7.7-16.4c0.2-0.3,0-0.7-0.3-0.9l0,0   C37.2,71.8,36.8,72,36.7,72.3z"></path><path d="M34.3,72.2l-9.1,15.7c-0.2,0.3-0.1,0.7,0.2,0.9l0,0c0.3,0.2,0.7,0.1,0.9-0.2l9.1-15.7c0.2-0.3,0.1-0.7-0.2-0.9l0,0   C34.8,71.8,34.5,71.9,34.3,72.2z"></path><path d="M31.8,72.2L21.4,87c-0.2,0.3-0.1,0.7,0.2,0.9v0c0.3,0.2,0.7,0.1,0.9-0.2l10.4-14.9c0.2-0.3,0.1-0.7-0.2-0.9h0   C32.4,71.8,32,71.9,31.8,72.2z"></path><path d="M29.4,72.1L17.7,86c-0.2,0.3-0.2,0.7,0.1,0.9h0c0.3,0.2,0.7,0.2,0.9-0.1L30.4,73c0.2-0.3,0.2-0.7-0.1-0.9l0,0   C30,71.8,29.6,71.9,29.4,72.1z"></path><path d="M27,72.1L14.2,84.9c-0.3,0.3-0.3,0.7,0,0.9h0c0.3,0.3,0.7,0.3,0.9,0L27.9,73c0.3-0.3,0.3-0.7,0-0.9l0,0   C27.7,71.8,27.3,71.8,27,72.1z"></path><path d="M72.5,49.4h18.1c0.4,0,0.6,0.3,0.6,0.6l0,0c0,0.4-0.3,0.6-0.6,0.6H72.5c-0.4,0-0.6-0.3-0.6-0.6l0,0   C71.9,49.6,72.2,49.4,72.5,49.4z"></path><path d="M72.5,46.8l18.1-1.6c0.4,0,0.7,0.2,0.7,0.6v0c0,0.4-0.2,0.7-0.6,0.7l-18.1,1.6c-0.4,0-0.7-0.2-0.7-0.6v0   C71.9,47.1,72.1,46.8,72.5,46.8z"></path><path d="M72.4,44.2l17.9-3.2c0.3-0.1,0.7,0.2,0.7,0.5h0c0.1,0.3-0.2,0.7-0.5,0.7l-17.9,3.2c-0.3,0.1-0.7-0.2-0.7-0.5v0   C71.9,44.6,72.1,44.3,72.4,44.2z"></path><path d="M72.4,41.7L89.9,37c0.3-0.1,0.7,0.1,0.8,0.5l0,0c0.1,0.3-0.1,0.7-0.5,0.8l-17.5,4.7c-0.3,0.1-0.7-0.1-0.8-0.5v0   C71.8,42.1,72,41.8,72.4,41.7z"></path><path d="M72.3,39.2L89.4,33c0.3-0.1,0.7,0.1,0.8,0.4v0c0.1,0.3-0.1,0.7-0.4,0.8l-17.1,6.2c-0.3,0.1-0.7-0.1-0.8-0.4l0,0   C71.8,39.7,72,39.3,72.3,39.2z"></path><path d="M72.3,36.7L88.7,29c0.3-0.2,0.7,0,0.9,0.3v0c0.2,0.3,0,0.7-0.3,0.9l-16.4,7.7c-0.3,0.2-0.7,0-0.9-0.3l0,0   C71.8,37.2,72,36.8,72.3,36.7z"></path><path d="M72.2,34.3l15.7-9.1c0.3-0.2,0.7-0.1,0.9,0.2l0,0c0.2,0.3,0.1,0.7-0.2,0.9l-15.7,9.1c-0.3,0.2-0.7,0.1-0.9-0.2l0,0   C71.8,34.8,71.9,34.5,72.2,34.3z"></path><path d="M72.2,31.8L87,21.4c0.3-0.2,0.7-0.1,0.9,0.2h0c0.2,0.3,0.1,0.7-0.2,0.9L72.9,32.9c-0.3,0.2-0.7,0.1-0.9-0.2v0   C71.8,32.4,71.9,32,72.2,31.8z"></path><path d="M72.1,29.4L86,17.7c0.3-0.2,0.7-0.2,0.9,0.1v0c0.2,0.3,0.2,0.7-0.1,0.9L73,30.4c-0.3,0.2-0.7,0.2-0.9-0.1l0,0   C71.8,30,71.9,29.6,72.1,29.4z"></path><path d="M72.1,27l12.8-12.8c0.3-0.3,0.7-0.3,0.9,0v0c0.3,0.3,0.3,0.7,0,0.9L73,27.9c-0.3,0.3-0.7,0.3-0.9,0l0,0   C71.8,27.7,71.8,27.3,72.1,27z"></path><path d="M72.5,50.6h18.1c0.4,0,0.6-0.3,0.6-0.6l0,0c0-0.4-0.3-0.6-0.6-0.6H72.5c-0.4,0-0.6,0.3-0.6,0.6l0,0   C71.9,50.4,72.2,50.6,72.5,50.6z"></path><path d="M72.5,53.2l18.1,1.6c0.4,0,0.7-0.2,0.7-0.6v0c0-0.4-0.2-0.7-0.6-0.7l-18.1-1.6c-0.4,0-0.7,0.2-0.7,0.6v0   C71.9,52.9,72.1,53.2,72.5,53.2z"></path><path d="M72.4,55.8l17.9,3.2c0.3,0.1,0.7-0.2,0.7-0.5h0c0.1-0.3-0.2-0.7-0.5-0.7l-17.9-3.2c-0.3-0.1-0.7,0.2-0.7,0.5v0   C71.9,55.4,72.1,55.7,72.4,55.8z"></path><path d="M72.4,58.3L89.9,63c0.3,0.1,0.7-0.1,0.8-0.5l0,0c0.1-0.3-0.1-0.7-0.5-0.8l-17.5-4.7c-0.3-0.1-0.7,0.1-0.8,0.5v0   C71.8,57.9,72,58.2,72.4,58.3z"></path><path d="M72.3,60.8L89.4,67c0.3,0.1,0.7-0.1,0.8-0.4l0,0c0.1-0.3-0.1-0.7-0.4-0.8l-17.1-6.2c-0.3-0.1-0.7,0.1-0.8,0.4l0,0   C71.8,60.3,72,60.7,72.3,60.8z"></path><path d="M72.3,63.3L88.7,71c0.3,0.2,0.7,0,0.9-0.3l0,0c0.2-0.3,0-0.7-0.3-0.9l-16.4-7.7c-0.3-0.2-0.7,0-0.9,0.3l0,0   C71.8,62.8,72,63.2,72.3,63.3z"></path><path d="M72.2,65.7l15.7,9.1c0.3,0.2,0.7,0.1,0.9-0.2l0,0c0.2-0.3,0.1-0.7-0.2-0.9l-15.7-9.1c-0.3-0.2-0.7-0.1-0.9,0.2l0,0   C71.8,65.2,71.9,65.5,72.2,65.7z"></path><path d="M72.2,68.2L87,78.6c0.3,0.2,0.7,0.1,0.9-0.2h0c0.2-0.3,0.1-0.7-0.2-0.9L72.9,67.1c-0.3-0.2-0.7-0.1-0.9,0.2l0,0   C71.8,67.6,71.9,68,72.2,68.2z"></path><path d="M72.1,70.6L86,82.3c0.3,0.2,0.7,0.2,0.9-0.1l0,0c0.2-0.3,0.2-0.7-0.1-0.9L73,69.6c-0.3-0.2-0.7-0.2-0.9,0.1v0   C71.8,70,71.9,70.4,72.1,70.6z"></path><path d="M72.1,73l12.8,12.8c0.3,0.3,0.7,0.3,0.9,0l0,0c0.3-0.3,0.3-0.7,0-0.9L73,72.1c-0.3-0.3-0.7-0.3-0.9,0l0,0   C71.8,72.3,71.8,72.7,72.1,73z"></path><path d="M49.4,27.5V9.3c0-0.4,0.3-0.6,0.6-0.6l0,0c0.4,0,0.6,0.3,0.6,0.6v18.1c0,0.4-0.3,0.6-0.6,0.6l0,0   C49.6,28.1,49.4,27.8,49.4,27.5z"></path><path d="M46.8,27.5L45.2,9.4c0-0.4,0.2-0.7,0.6-0.7h0c0.4,0,0.7,0.2,0.7,0.6l1.6,18.1c0,0.4-0.2,0.7-0.6,0.7h0   C47.1,28.1,46.8,27.9,46.8,27.5z"></path><path d="M44.2,27.6L41.1,9.7C41,9.3,41.2,9,41.6,8.9v0c0.3-0.1,0.7,0.2,0.7,0.5l3.2,17.9c0.1,0.3-0.2,0.7-0.5,0.7v0   C44.6,28.1,44.3,27.9,44.2,27.6z"></path><path d="M41.7,27.6L37,10.1c-0.1-0.3,0.1-0.7,0.5-0.8l0,0c0.3-0.1,0.7,0.1,0.8,0.5l4.7,17.5c0.1,0.3-0.1,0.7-0.5,0.8l0,0   C42.1,28.2,41.8,28,41.7,27.6z"></path><path d="M39.2,27.7L33,10.6c-0.1-0.3,0.1-0.7,0.4-0.8l0,0c0.3-0.1,0.7,0.1,0.8,0.4l6.2,17.1c0.1,0.3-0.1,0.7-0.4,0.8l0,0   C39.7,28.2,39.3,28,39.2,27.7z"></path><path d="M36.7,27.7L29,11.3c-0.2-0.3,0-0.7,0.3-0.9h0c0.3-0.2,0.7,0,0.9,0.3l7.7,16.4c0.2,0.3,0,0.7-0.3,0.9l0,0   C37.2,28.2,36.8,28,36.7,27.7z"></path><path d="M34.3,27.8l-9.1-15.7c-0.2-0.3-0.1-0.7,0.2-0.9l0,0c0.3-0.2,0.7-0.1,0.9,0.2l9.1,15.7c0.2,0.3,0.1,0.7-0.2,0.9l0,0   C34.8,28.2,34.5,28.1,34.3,27.8z"></path><path d="M31.8,27.8L21.4,13c-0.2-0.3-0.1-0.7,0.2-0.9l0,0c0.3-0.2,0.7-0.1,0.9,0.2l10.4,14.9c0.2,0.3,0.1,0.7-0.2,0.9h0   C32.4,28.2,32,28.1,31.8,27.8z"></path><path d="M29.4,27.9L17.7,14c-0.2-0.3-0.2-0.7,0.1-0.9l0,0c0.3-0.2,0.7-0.2,0.9,0.1L30.4,27c0.2,0.3,0.2,0.7-0.1,0.9v0   C30,28.2,29.6,28.1,29.4,27.9z"></path><path d="M27,27.9L14.2,15.1c-0.3-0.3-0.3-0.7,0-0.9l0,0c0.3-0.3,0.7-0.3,0.9,0L27.9,27c0.3,0.3,0.3,0.7,0,0.9l0,0   C27.7,28.2,27.3,28.2,27,27.9z"></path><path d="M50.6,27.5V9.3c0-0.4-0.3-0.6-0.6-0.6l0,0c-0.4,0-0.6,0.3-0.6,0.6v18.1c0,0.4,0.3,0.6,0.6,0.6l0,0   C50.4,28.1,50.6,27.8,50.6,27.5z"></path><path d="M53.2,27.5l1.6-18.1c0-0.4-0.2-0.7-0.6-0.7l0,0c-0.4,0-0.7,0.2-0.7,0.6l-1.6,18.1c0,0.4,0.2,0.7,0.6,0.7h0   C52.9,28.1,53.2,27.9,53.2,27.5z"></path><path d="M55.8,27.6l3.2-17.9C59,9.3,58.8,9,58.4,8.9v0c-0.3-0.1-0.7,0.2-0.7,0.5l-3.2,17.9c-0.1,0.3,0.2,0.7,0.5,0.7l0,0   C55.4,28.1,55.7,27.9,55.8,27.6z"></path><path d="M58.3,27.6L63,10.1c0.1-0.3-0.1-0.7-0.5-0.8l0,0c-0.3-0.1-0.7,0.1-0.8,0.5l-4.7,17.5c-0.1,0.3,0.1,0.7,0.5,0.8h0   C57.9,28.2,58.2,28,58.3,27.6z"></path><path d="M60.8,27.7L67,10.6c0.1-0.3-0.1-0.7-0.4-0.8v0c-0.3-0.1-0.7,0.1-0.8,0.4l-6.2,17.1c-0.1,0.3,0.1,0.7,0.4,0.8l0,0   C60.3,28.2,60.7,28,60.8,27.7z"></path><path d="M63.3,27.7L71,11.3c0.2-0.3,0-0.7-0.3-0.9l0,0c-0.3-0.2-0.7,0-0.9,0.3l-7.7,16.4c-0.2,0.3,0,0.7,0.3,0.9h0   C62.8,28.2,63.2,28,63.3,27.7z"></path><path d="M65.7,27.8l9.1-15.7c0.2-0.3,0.1-0.7-0.2-0.9v0c-0.3-0.2-0.7-0.1-0.9,0.2l-9.1,15.7c-0.2,0.3-0.1,0.7,0.2,0.9h0   C65.2,28.2,65.5,28.1,65.7,27.8z"></path><path d="M68.2,27.8L78.6,13c0.2-0.3,0.1-0.7-0.2-0.9l0,0c-0.3-0.2-0.7-0.1-0.9,0.2L67.1,27.1c-0.2,0.3-0.1,0.7,0.2,0.9l0,0   C67.6,28.2,68,28.1,68.2,27.8z"></path><path d="M70.6,27.9L82.3,14c0.2-0.3,0.2-0.7-0.1-0.9v0c-0.3-0.2-0.7-0.2-0.9,0.1L69.6,27c-0.2,0.3-0.2,0.7,0.1,0.9v0   C70,28.2,70.4,28.1,70.6,27.9z"></path><path d="M73,27.9l12.8-12.8c0.3-0.3,0.3-0.7,0-0.9v0c-0.3-0.3-0.7-0.3-0.9,0L72.1,27c-0.3,0.3-0.3,0.7,0,0.9l0,0   C72.3,28.2,72.7,28.2,73,27.9z"></path></g></g><defs></defs></svg></g> <g fill="black" filter="url(#b8e6a9e0-2f7d-4c67-8905-b7174db305c3)"><svg xmlns="http://www.w3.org/2000/svg" xmlns:xlink="http://www.w3.org/1999/xlink" viewBox="0 0 131.9502854003906 52.92000000000001" width="45" height="45" x="7.5" y="7.5" class="image-svg-letter"><path transform="translate(-3.096 52.848000000000006)" d="M26.28-0.72L26.28-0.72Q26.14-0.65 26.03-0.58Q25.92-0.50 25.78-0.50L25.78-0.50L3.67-0.50Q3.31-0.50 3.17-0.61Q3.02-0.72 3.17-1.08L3.17-1.08Q3.46-1.73 4.36-1.98Q5.26-2.23 6.30-2.27Q7.34-2.30 8.24-2.34Q9.14-2.38 9.36-2.59L9.36-2.59Q9.58-2.81 9.58-3.17L9.58-3.17L9.58-50.18Q9.58-50.62 9.40-50.72Q9.22-50.83 8.86-50.98L8.86-50.98Q8.28-51.12 7.60-51.16Q6.91-51.19 6.19-51.23Q5.47-51.26 4.82-51.34Q4.18-51.41 3.67-51.70L3.67-51.70Q3.38-51.84 3.38-51.95Q3.38-52.06 3.38-52.34L3.38-52.34Q3.38-52.78 3.89-52.78L3.89-52.78L26.42-52.78Q26.86-52.78 26.86-52.27L26.86-52.27Q26.86-51.77 26.03-51.55Q25.20-51.34 24.16-51.23Q23.11-51.12 22.14-51.05Q21.17-50.98 20.88-50.69L20.88-50.69Q20.74-50.54 20.74-50.40Q20.74-50.26 20.74-50.11L20.74-50.11Q20.81-49.54 20.77-49.03Q20.74-48.53 20.74-47.95L20.74-47.95L20.66-42.34Q20.66-41.47 20.66-38.20Q20.66-34.92 20.66-30.56Q20.66-26.21 20.63-21.38Q20.59-16.56 20.63-12.46Q20.66-8.35 20.70-5.58Q20.74-2.81 20.81-2.66L20.81-2.66Q20.88-2.45 21.92-2.38Q22.97-2.30 24.08-2.20Q25.20-2.09 25.96-1.76Q26.71-1.44 26.28-0.72ZM36.36-51.41L36.36-51.41Q35.78-51.55 35.24-51.66Q34.70-51.77 35.28-52.56L35.28-52.56Q35.50-52.78 35.78-52.78L35.78-52.78L52.49-52.78Q52.78-52.78 52.92-52.74Q53.06-52.70 52.92-52.34L52.92-52.34Q52.70-51.91 51.44-51.41Q50.18-50.90 48.64-50.36Q47.09-49.82 45.65-49.25Q44.21-48.67 43.70-48.02L43.70-48.02L36.00-38.81Q35.78-38.52 35.35-38.09Q34.92-37.66 34.52-37.15Q34.13-36.65 33.88-36.14Q33.62-35.64 33.77-35.21L33.77-35.21Q34.06-34.13 34.85-32.90Q35.64-31.68 36.22-30.67L36.22-30.67Q37.01-29.30 37.69-27.94Q38.38-26.57 39.17-25.20L39.17-25.20Q41.83-20.45 44.35-15.73Q46.87-11.02 49.46-6.26L49.46-6.26Q50.40-4.61 51.08-3.82Q51.77-3.02 52.27-2.77Q52.78-2.52 53.21-2.63Q53.64-2.74 54.07-2.77Q54.50-2.81 54.97-2.59Q55.44-2.38 56.09-1.51L56.09-1.51Q56.23-1.37 56.45-0.94Q56.66-0.50 56.09-0.50L56.09-0.50L34.42-0.50Q34.06-0.50 33.91-0.61Q33.77-0.72 33.91-1.08L33.91-1.08Q34.13-1.44 34.63-1.69Q35.14-1.94 35.78-2.09Q36.43-2.23 37.08-2.30Q37.73-2.38 38.09-2.38L38.09-2.38Q38.88-2.38 38.88-3.17L38.88-3.17Q38.88-4.18 38.30-5.62Q37.73-7.06 37.30-7.92L37.30-7.92Q35.50-11.38 33.52-14.72Q31.54-18.07 29.52-21.46L29.52-21.46Q28.80-22.68 28.22-23.83Q27.65-24.98 27.22-26.28L27.22-26.28Q27.14-26.57 26.86-26.64L26.86-26.64Q26.28-26.78 25.74-26.46Q25.20-26.14 24.73-25.56Q24.26-24.98 23.83-24.37Q23.40-23.76 23.11-23.40L23.11-23.40Q22.90-23.11 22.64-23.18Q22.39-23.26 22.25-23.51Q22.10-23.76 22.14-24.12Q22.18-24.48 22.46-24.84L22.46-24.84Q23.76-26.35 24.98-27.97Q26.21-29.59 27.43-31.18L27.43-31.18Q29.95-34.34 32.44-37.40Q34.92-40.46 37.44-43.63L37.44-43.63Q38.09-44.42 38.70-45.25Q39.31-46.08 40.03-46.87L40.03-46.87Q40.25-47.09 40.64-47.48Q41.04-47.88 41.44-48.31Q41.83-48.74 42.16-49.14Q42.48-49.54 42.62-49.75L42.62-49.75Q42.84-50.18 42.55-50.62L42.55-50.62Q42.41-50.83 41.54-50.94Q40.68-51.05 39.64-51.08Q38.59-51.12 37.66-51.19Q36.72-51.26 36.36-51.41ZM95.69-50.69L95.62-50.69Q95.33-50.90 94.25-51.01Q93.17-51.12 91.98-51.23Q90.79-51.34 89.82-51.52Q88.85-51.70 88.85-52.20L88.85-52.20Q88.85-52.78 89.42-52.78L89.42-52.78L111.02-52.78Q111.60-52.78 111.53-52.20L111.53-52.20Q111.38-51.48 110.05-51.34Q108.72-51.19 107.21-51.12Q105.70-51.05 104.54-50.90Q103.39-50.76 103.61-50.04L103.61-50.04L112.68-18.22Q112.90-17.35 113.08-16.16Q113.26-14.98 113.47-13.79Q113.69-12.60 114.01-11.52Q114.34-10.44 114.77-9.79L114.77-9.79Q115.13-9.36 115.42-8.28Q115.70-7.20 115.85-6.62L115.85-6.62Q115.06-4.39 114.55-2.23L114.55-2.23Q114.41-1.66 114.30-1.04Q114.19-0.43 113.76-0.07L113.76-0.07Q113.69 0 112.97 0Q112.25 0 111.38 0Q110.52 0 109.69 0Q108.86 0 108.65 0L108.65 0Q108.22 0 108-0.36L108-0.36Q107.86-0.58 107.28-2.38Q106.70-4.18 105.91-6.88Q105.12-9.58 104.18-12.74Q103.25-15.91 102.42-18.79Q101.59-21.67 100.91-23.90Q100.22-26.14 100.01-26.93L100.01-26.93Q99.58-28.37 99.11-29.77Q98.64-31.18 98.28-32.62L98.28-32.62Q98.14-33.12 97.88-34.70Q97.63-36.29 97.31-37.98Q96.98-39.67 96.55-40.97Q96.12-42.26 95.69-42.26L95.69-42.26Q95.11-42.26 94.82-41.54L94.82-41.54Q94.68-41.11 94.61-40.61Q94.54-40.10 94.39-39.60L94.39-39.60L93.31-34.99Q91.94-29.30 90.25-23.80Q88.56-18.29 86.83-12.67L86.83-12.67Q86.54-11.74 85.97-12.24Q85.39-12.74 85.39-13.54L85.39-13.54Q85.39-13.61 85.64-14.62Q85.90-15.62 86.22-16.88Q86.54-18.14 86.87-19.26Q87.19-20.38 87.26-20.66L87.26-20.66Q88.56-25.49 90-30.20Q91.44-34.92 92.74-39.74L92.74-39.74Q93.24-41.62 93.64-43.60Q94.03-45.58 94.82-47.38L94.82-47.38Q94.90-47.59 95.11-48.06Q95.33-48.53 95.47-49.07Q95.62-49.61 95.72-50.04Q95.83-50.47 95.69-50.69L95.69-50.69ZM118.73-52.56L118.73-52.63Q118.94-52.70 120.06-52.78Q121.18-52.85 122.72-52.85Q124.27-52.85 126.11-52.85Q127.94-52.85 129.60-52.81Q131.26-52.78 132.59-52.78Q133.92-52.78 134.42-52.78L134.42-52.78Q135.22-52.78 135-52.13L135-52.13Q134.86-51.48 133.92-51.34Q132.98-51.19 131.83-51.08Q130.68-50.98 129.60-50.54Q128.52-50.11 128.02-48.96L128.02-48.96Q127.66-48.10 127.40-47.20Q127.15-46.30 126.86-45.36L126.86-45.36Q126.07-42.84 125.46-40.25Q124.85-37.66 124.06-35.06L124.06-35.06L121.25-25.34Q120.67-23.47 120.10-21.56Q119.52-19.66 118.94-17.71L118.94-17.71Q118.58-16.70 118.33-15.70Q118.08-14.69 117.72-13.68L117.72-13.68Q117.36-12.67 116.68-12.71Q115.99-12.74 116.14-13.75L116.14-13.75Q116.21-14.04 116.28-14.22Q116.35-14.40 116.42-14.69L116.42-14.69Q116.71-15.70 116.86-16.78Q117-17.86 117.29-18.86L117.29-18.86Q117.79-21.02 118.33-23.22Q118.87-25.42 119.45-27.58L119.45-27.58Q120.67-32.11 121.79-36.58Q122.90-41.04 124.20-45.58L124.20-45.58Q124.49-46.51 124.78-47.38Q125.06-48.24 125.21-49.25L125.21-49.25Q125.28-49.82 125.28-50.22Q125.28-50.62 124.70-50.90L124.70-50.90Q124.27-51.12 123.48-51.12Q122.69-51.12 121.79-51.12Q120.89-51.12 120.02-51.30Q119.16-51.48 118.66-52.06L118.66-52.06Q118.37-52.34 118.73-52.56L118.73-52.56ZM85.54-8.28L85.54-8.28Q84.96-6.34 84.38-4.36Q83.81-2.38 83.09-0.50L83.09-0.50Q82.94-0.22 82.87-0.11Q82.80 0 82.44 0L82.44 0Q82.08 0 81.32 0.04Q80.57 0.07 79.78 0.07Q78.98 0.07 78.30 0Q77.62-0.07 77.40-0.22L77.40-0.22Q77.18-0.36 76.57-2.34Q75.96-4.32 75.24-6.77Q74.52-9.22 73.91-11.41Q73.30-13.61 73.08-14.26L73.08-14.26L67.32-33.77Q66.31-37.22 65.27-40.64Q64.22-44.06 63.22-47.52L63.22-47.52Q63.07-48.02 62.96-48.53Q62.86-49.03 62.71-49.54L62.71-49.54Q62.57-49.75 62.46-50.04Q62.35-50.33 62.21-50.54L62.21-50.54Q61.99-50.83 61.42-50.98Q60.84-51.12 60.16-51.23Q59.47-51.34 58.82-51.44Q58.18-51.55 57.89-51.70L57.89-51.70Q57.46-51.91 57.42-52.34Q57.38-52.78 57.96-52.78L57.96-52.78L80.06-52.78Q80.64-52.78 80.53-52.34Q80.42-51.91 80.14-51.70L80.14-51.70Q79.92-51.55 79.13-51.41Q78.34-51.26 77.44-51.19Q76.54-51.12 75.71-51.05Q74.88-50.98 74.52-50.90L74.52-50.90Q74.02-50.83 73.94-50.80Q73.87-50.76 73.80-50.18L73.80-50.18Q73.73-49.68 74.05-48.02Q74.38-46.37 74.84-44.42Q75.31-42.48 75.74-40.72Q76.18-38.95 76.39-38.23L76.39-38.23Q77.62-33.41 78.95-28.66Q80.28-23.90 81.58-19.08L81.58-19.08Q82.01-17.57 82.48-16.06Q82.94-14.54 83.30-13.03L83.30-13.03Q83.52-12.24 83.66-11.48Q83.81-10.73 84.17-10.01L84.17-10.01Q84.24-9.86 84.46-9.72Q84.67-9.58 84.89-9.43Q85.10-9.29 85.32-9.00Q85.54-8.71 85.54-8.28Z"></path></svg></g><defs><filter id="b8e6a9e0-2f7d-4c67-8905-b7174db305c3"><feGaussianBlur in="SourceGraphic" stdDeviation="1.26"></feGaussianBlur><feComponentTransfer><feFuncA type="discrete" tableValues="0 1 1 1 1 1 1 1 1 1 1 1 1 1 0"></feFuncA></feComponentTransfer></filter></defs></mask></svg> <defs><filter id="colors7745317462"><feColorMatrix type="matrix" values="0 0 0 0 0.0859375  0 0 0 0 0.515625  0 0 0 0 0.671875  0 0 0 1 0" class="icon-fecolormatrix"></feColorMatrix></filter> <filter id="colorsf5367472450"><feColorMatrix type="matrix" values="0 0 0 0 0.99609375  0 0 0 0 0.99609375  0 0 0 0 0.99609375  0 0 0 1 0" class="icon-fecolormatrix"></feColorMatrix></filter> <filter id="colorsb2935578841"><feColorMatrix type="matrix" values="0 0 0 0 0  0 0 0 0 0  0 0 0 0 0  0 0 0 1 0" class="icon-fecolormatrix"></feColorMatrix></filter></defs></g> <g transform="translate(50,107)"><g data-gra="path-name" fill-rule="" class="tp-name iconsvg-namesvg"><g transform="scale(1)"><g><path d="" transform="translate(0, 0)"></path></g> <!----> <!----> <!----> <!----> <!----> <!----> <!----></g></g> <!----></g></g><defs v-gra="od"></defs></svg>